<?xml version="1.0" encoding="utf-8"?>
<svg viewBox="0 0 1021.353 463.634" xmlns="http://www.w3.org/2000/svg">
  <defs>
    <style>.cls-1{fill:#00a9ee;}.cls-2{fill:#fff;}.cls-3{fill:#ed1c24;}</style>
  </defs>
  <path class="cls-1" d="M479.08,384.614,322.929,294.458a16.962,16.962,0,0,0-16.969,0L149.808,384.614a16.968,16.968,0,0,0-8.485,14.695v180.3a16.968,16.968,0,0,0,8.485,14.695l76.953,44.436c.336.224.679.439,1.036.646l156.152,90.156a16.969,16.969,0,0,0,25.454-14.7V634.535l69.678-40.227a16.968,16.968,0,0,0,8.484-14.695v-180.3A16.969,16.969,0,0,0,479.08,384.614Zm-25.454,185.2-69.678,40.231a16.968,16.968,0,0,0-8.485,14.695v60.717L245.888,610.643c-.336-.228-.679-.443-1.036-.646l-69.591-40.181V409.107l139.183-80.359,139.183,80.359Z" transform="matrix(1, 0, 0, 1, -129.322998, -280.183014)"/>
  <path class="cls-2" d="M485.077,374.22,328.929,284.065a28.962,28.962,0,0,0-28.969,0L143.808,374.222a29.042,29.042,0,0,0-14.484,25.087v180.3A29.043,29.043,0,0,0,143.811,604.7l76.653,44.263c.431.279.867.547,1.3.8l156.183,90.174A28.969,28.969,0,0,0,421.4,714.848V641.463L485.08,604.7a29.042,29.042,0,0,0,14.485-25.087v-180.3A29.043,29.043,0,0,0,485.077,374.22Zm2.487,205.393a16.969,16.969,0,0,1-8.484,14.695L409.4,634.535v80.313a16.973,16.973,0,0,1-25.454,14.7L227.8,639.39c-.356-.207-.7-.423-1.036-.646l-76.953-44.436a16.968,16.968,0,0,1-8.485-14.695v-180.3a16.968,16.968,0,0,1,8.485-14.695L305.96,294.458a16.962,16.962,0,0,1,16.969,0L479.08,384.614a16.969,16.969,0,0,1,8.484,14.695Z" transform="matrix(1, 0, 0, 1, -129.322998, -280.183014)"/>
  <path class="cls-2" d="M175.261,409.107V569.815L244.853,610c.356.2.7.418,1.036.646l91.083,52.59,38.493,22.225V624.741a16.961,16.961,0,0,1,7.524-14.1q.468-.313.96-.6l69.678-40.231V409.107L314.444,328.748Z" transform="matrix(1, 0, 0, 1, -129.322998, -280.183014)"/>
  <path class="cls-3" d="M303.176,509.305l-3.637-54.433q-1.019-15.908-1.019-22.844,0-9.433,4.947-14.715t13.008-5.286q9.769,0,13.066,6.761t3.3,19.492a148.573,148.573,0,0,1-.8,15.225l-4.889,56.028q-.8,10-3.405,15.341a8.939,8.939,0,0,1-8.642,5.344q-6.127,0-8.518-5.174T303.176,509.305Zm12.619,74.778a17.874,17.874,0,0,1-12.105-4.491q-5.17-4.487-5.17-12.557A16.883,16.883,0,0,1,315.563,550.1a16.86,16.86,0,0,1,12.221,4.942,16.177,16.177,0,0,1,5.054,11.989q0,7.96-5.112,12.5A17.422,17.422,0,0,1,315.795,584.083Z" transform="matrix(1, 0, 0, 1, -129.322998, -280.183014)"/>
  <path class="cls-3" d="M 412.03 127.957 C 412.03 119.509 413.35 112.342 415.991 106.457 C 418.405 100.863 422.179 95.961 426.969 92.197 C 431.948 88.433 437.65 85.736 443.718 84.275 C 450.678 82.56 457.826 81.724 464.994 81.786 C 471.619 81.732 478.238 82.186 484.794 83.144 C 490.601 84.049 495.58 85.03 499.732 86.086 C 502.996 86.868 506.208 87.85 509.351 89.028 C 511.618 89.933 512.9 90.461 513.199 90.612 L 513.199 248.597 L 487.399 248.597 L 487.399 105.323 C 486.494 105.022 484.042 104.419 480.043 103.512 C 475.165 102.522 470.194 102.066 465.218 102.154 C 455.56 102.154 448.581 104.454 444.281 109.054 C 439.981 113.654 437.831 120.558 437.83 129.765 L 437.83 134.97 L 463.63 134.97 C 468.609 134.97 472.118 135.989 474.155 138.026 C 476.192 140.063 477.211 143.043 477.211 146.966 C 477.234 149.389 476.851 151.799 476.079 154.096 C 475.565 155.676 474.96 157.225 474.268 158.736 L 437.833 158.736 L 437.833 248.597 L 412.033 248.597 L 412.03 127.957 Z"/>
  <path class="cls-3" d="M 540.817 146.97 C 540.817 142.747 542.024 139.692 544.438 137.804 C 546.852 135.916 550.247 134.973 554.624 134.974 C 557.15 134.948 559.666 135.291 562.093 135.993 C 564.36 136.673 565.869 137.164 566.62 137.465 L 566.62 196.992 C 566.62 207.255 569.034 215.063 573.862 220.418 C 578.69 225.773 586.084 228.451 596.044 228.453 C 606.003 228.453 613.397 225.775 618.226 220.418 C 623.055 215.061 625.469 207.253 625.468 196.992 L 625.468 146.97 C 625.468 142.747 626.675 139.692 629.089 137.804 C 631.503 135.916 634.823 134.973 639.048 134.974 C 641.651 134.938 644.244 135.281 646.748 135.993 C 649.015 136.673 650.524 137.164 651.275 137.465 L 651.275 202.651 C 651.39 209.753 650.041 216.803 647.314 223.361 C 644.777 229.325 640.906 234.628 635.998 238.861 C 630.859 243.216 624.892 246.488 618.457 248.48 C 603.839 252.856 588.259 252.856 573.641 248.48 C 567.232 246.505 561.3 243.231 556.213 238.861 C 551.347 234.589 547.483 229.297 544.897 223.361 C 542.094 216.822 540.706 209.764 540.823 202.651 L 540.817 146.97 Z"/>
  <path class="cls-3" d="M 778.925 240.217 C 777.715 240.974 775.829 242.03 773.267 243.386 C 770.182 244.954 766.962 246.242 763.647 247.234 C 759.267 248.57 754.807 249.628 750.293 250.403 C 744.798 251.345 739.231 251.799 733.656 251.761 C 725.611 251.827 717.613 250.526 710.004 247.913 C 702.875 245.463 696.327 241.572 690.766 236.482 C 685.159 231.29 680.722 224.963 677.751 217.922 C 674.451 209.925 672.833 201.334 672.998 192.685 C 672.89 184.198 674.467 175.774 677.638 167.901 C 680.57 160.67 684.961 154.12 690.538 148.663 C 696.129 143.254 702.748 139.022 710.004 136.217 C 717.838 133.208 726.171 131.711 734.563 131.804 C 741.624 131.686 748.657 132.718 755.386 134.86 C 760.928 136.632 766.104 139.392 770.663 143.007 C 778.684 149.396 783.318 159.122 783.226 169.376 C 783.294 174.323 782.291 179.226 780.284 183.748 C 778.321 188.049 774.851 191.746 769.872 194.839 C 764.893 197.932 758.178 200.347 749.727 202.082 C 741.275 203.815 730.562 204.682 717.587 204.682 C 714.566 204.682 711.737 204.644 709.099 204.569 C 706.461 204.494 703.632 204.381 700.612 204.23 C 701.686 211.706 705.722 218.436 711.812 222.903 C 718.072 227.656 727.012 230.032 738.633 230.033 C 742.274 230.057 745.911 229.755 749.498 229.128 C 752.53 228.598 755.519 227.841 758.438 226.864 C 760.751 226.089 763.018 225.182 765.228 224.148 C 767.113 223.243 768.508 222.564 769.415 222.111 L 778.925 240.217 Z M 699.477 186.579 C 702.944 186.732 706.263 186.807 709.436 186.806 L 718.942 186.806 C 725.693 186.937 732.44 186.407 739.087 185.222 C 743.275 184.498 747.324 183.123 751.087 181.148 C 753.954 179.489 755.84 177.603 756.745 175.49 C 757.642 173.418 758.104 171.184 758.103 168.926 C 758.103 163.193 755.803 158.893 751.203 156.026 C 746.603 153.159 740.907 151.726 734.114 151.726 C 729.054 151.619 724.032 152.624 719.402 154.668 C 715.35 156.501 711.727 159.161 708.764 162.477 C 705.869 165.768 703.605 169.565 702.086 173.677 C 700.518 177.806 699.637 182.165 699.477 186.579 Z"/>
  <path class="cls-3" d="M 802.463 180.017 C 802.344 173.038 803.774 166.119 806.651 159.759 C 809.347 153.923 813.287 148.748 818.194 144.595 C 823.327 140.319 829.248 137.09 835.622 135.088 C 842.759 132.837 850.207 131.73 857.69 131.807 C 865.21 131.736 872.695 132.843 879.872 135.088 C 886.287 137.073 892.248 140.304 897.413 144.595 C 902.307 148.734 906.212 153.915 908.844 159.759 C 911.646 166.139 913.036 173.05 912.918 180.017 L 912.918 248.597 L 887.118 248.597 L 887.118 186.579 C 887.118 176.32 884.628 168.512 879.648 163.153 C 874.668 157.794 867.349 155.116 857.69 155.117 C 847.879 155.117 840.523 157.795 835.622 163.152 C 830.721 168.509 828.269 176.317 828.267 186.578 L 828.267 248.597 L 802.467 248.597 L 802.463 180.017 Z"/>
  <path class="cls-3" d="M 939.849 114.83 C 939.849 110.607 941.056 107.552 943.47 105.663 C 945.884 103.774 949.204 102.831 953.429 102.834 C 955.992 102.813 958.545 103.156 961.012 103.853 C 963.35 104.532 964.897 105.022 965.652 105.324 L 965.652 134.974 L 998.471 134.974 C 1003.45 134.974 1006.958 135.993 1008.995 138.03 C 1011.032 140.067 1012.05 143.047 1012.051 146.97 C 1012.074 149.393 1011.691 151.803 1010.92 154.1 C 1010.406 155.68 1009.801 157.229 1009.108 158.74 L 965.651 158.74 L 965.651 209.217 C 965.539 212.497 966.077 215.766 967.236 218.836 C 968.177 221.176 969.696 223.24 971.649 224.836 C 973.575 226.366 975.816 227.448 978.212 228.005 C 980.77 228.617 983.392 228.921 986.022 228.91 C 990.183 228.946 994.319 228.257 998.244 226.873 C 1001.116 225.951 1003.855 224.658 1006.392 223.025 L 1016.804 240.225 C 1015.594 241.131 1013.896 242.264 1011.711 243.625 C 1009.16 245.159 1006.47 246.447 1003.676 247.473 C 1000.214 248.764 996.657 249.785 993.038 250.529 C 988.793 251.389 984.469 251.806 980.138 251.774 C 966.858 251.774 956.825 248.341 950.038 241.474 C 943.251 234.607 939.855 225.588 939.849 214.417 L 939.849 114.83 Z"/>
  <path class="cls-3" d="M 448.289 317.939 L 416.377 317.939 L 406.962 341.171 L 401.215 341.171 L 429.703 273.427 L 435.328 273.427 L 463.694 341.171 L 457.703 341.171 L 448.289 317.939 Z M 446.7 313.93 L 441.565 301.285 C 438.386 293.266 435.451 286.174 432.639 277.847 L 432.15 277.847 C 429.338 286.174 426.526 293.267 423.225 301.285 L 418.09 313.93 L 446.7 313.93 Z"/>
  <path class="cls-3" d="M 472.986 328.938 C 479.442 334.893 487.924 338.164 496.706 338.087 C 508.933 338.087 516.758 332.536 516.758 324.518 C 516.758 316.088 510.158 313.313 502.208 310.331 L 489.981 305.705 C 483.012 303.136 473.719 298.921 473.719 288.847 C 473.719 279.081 483.745 272.194 497.072 272.194 C 505.315 272.047 513.323 274.937 519.572 280.315 L 516.272 283.502 C 510.983 278.834 504.125 276.337 497.072 276.512 C 486.435 276.512 479.343 281.241 479.343 288.642 C 479.343 296.455 487.413 299.436 493.282 301.698 L 505.509 306.221 C 514.435 309.613 522.382 313.827 522.382 324.21 C 522.382 334.593 512.234 342.41 496.582 342.41 C 484.844 342.41 475.796 338.195 469.438 332.233 L 472.986 328.938 Z"/>
  <path class="cls-3" d="M 534.488 328.938 C 540.944 334.893 549.426 338.165 558.208 338.087 C 570.435 338.087 578.26 332.536 578.26 324.518 C 578.26 316.088 571.66 313.313 563.71 310.331 L 551.483 305.705 C 544.513 303.136 535.221 298.921 535.221 288.847 C 535.221 279.081 545.247 272.194 558.575 272.194 C 566.818 272.047 574.826 274.937 581.075 280.315 L 577.775 283.502 C 572.486 278.834 565.628 276.337 558.575 276.512 C 547.937 276.512 540.846 281.241 540.846 288.642 C 540.846 296.455 548.916 299.436 554.784 301.698 L 567.012 306.221 C 575.937 309.613 583.885 313.827 583.885 324.21 C 583.885 334.593 573.737 342.41 558.085 342.41 C 546.347 342.41 537.299 338.195 530.941 332.233 L 534.488 328.938 Z"/>
  <path class="cls-3" d="M 600.023 273.428 L 644.04 273.428 L 644.04 277.54 L 605.647 277.54 L 605.647 303.14 L 637.926 303.14 L 637.926 307.251 L 605.647 307.251 L 605.647 337.063 L 645.262 337.063 L 645.262 341.175 L 600.023 341.175 L 600.023 273.428 Z"/>
  <path class="cls-3" d="M 706.517 341.172 L 684.753 310.025 L 667.635 310.025 L 667.635 341.172 L 662.011 341.172 L 662.011 273.428 L 684.997 273.428 C 701.015 273.428 711.529 278.363 711.529 291.315 C 711.529 302.109 703.46 308.277 690.866 309.715 L 712.997 341.171 L 706.517 341.172 Z M 683.53 306.117 C 697.836 306.117 705.661 301.286 705.661 291.317 C 705.661 281.14 697.836 277.439 683.53 277.439 L 667.63 277.439 L 667.63 306.117 L 683.53 306.117 Z"/>
  <path class="cls-3" d="M 744.543 277.54 L 718.866 277.54 L 718.866 273.428 L 775.721 273.428 L 775.721 277.54 L 750.167 277.54 L 750.167 341.172 L 744.543 341.172 L 744.543 277.54 Z"/>
  <path class="cls-3" d="M 790.393 273.428 L 796.017 273.428 L 796.017 341.172 L 790.393 341.172 L 790.393 273.428 Z"/>
  <path class="cls-3" d="M 813.621 307.043 C 813.621 285.661 827.437 272.194 846.879 272.194 C 866.197 272.194 880.014 285.661 880.014 307.043 C 880.014 328.527 866.198 342.405 846.879 342.405 C 827.438 342.405 813.621 328.527 813.621 307.043 Z M 874.144 307.043 C 874.144 288.333 863.144 276.512 846.878 276.512 C 830.493 276.512 819.489 288.333 819.489 307.043 C 819.489 325.855 830.489 338.088 846.878 338.088 C 863.141 338.088 874.145 325.854 874.145 307.043 L 874.144 307.043 Z"/>
  <path class="cls-3" d="M 897.74 273.428 L 903.609 273.428 L 937.477 321.228 L 946.647 334.695 L 947.136 334.695 C 946.77 328.116 946.403 321.537 946.403 314.958 L 946.403 273.428 L 951.661 273.428 L 951.661 341.172 L 945.792 341.172 L 911.924 293.372 L 902.753 279.906 L 902.265 279.906 C 902.631 286.382 902.998 292.55 902.998 299.129 L 902.998 341.174 L 897.74 341.174 L 897.74 273.428 Z"/>
  <path class="cls-3" d="M 971.957 328.938 C 978.413 334.893 986.895 338.165 995.677 338.087 C 1007.904 338.087 1015.729 332.536 1015.729 324.518 C 1015.729 316.088 1009.129 313.313 1001.179 310.331 L 988.952 305.705 C 981.982 303.136 972.69 298.921 972.69 288.847 C 972.69 279.081 982.716 272.194 996.044 272.194 C 1004.287 272.047 1012.295 274.937 1018.544 280.315 L 1015.244 283.502 C 1009.955 278.834 1003.097 276.337 996.044 276.512 C 985.406 276.512 978.315 281.241 978.315 288.642 C 978.315 296.455 986.385 299.436 992.253 301.698 L 1004.477 306.217 C 1013.402 309.609 1021.35 313.823 1021.35 324.206 C 1021.35 334.589 1011.202 342.406 995.55 342.406 C 983.812 342.406 974.764 338.191 968.406 332.229 L 971.957 328.938 Z"/>
  <text style="fill: rgb(255, 60, 0); font-family: &quot;Yu Gothic&quot;; font-size: 30.9457px; white-space: pre;" transform="matrix(3.140956, 0, 0, 3.231469, -868.757581, -832.930432)" x="401.853" y="392.422">ANALYZERS</text>
</svg>